# xmcd CD database file
#
# Track frame offsets:
#	150
#	21006
#	41664
#	63292
#	80558
#	97790
#	115074
#	134122
#	153916
#	166770
#	185316
#	206080
#	224732
#	242927
#	262864
#	277103
#	294972
#
# Disc length: 4161 seconds
#
# Revision: 0
# Processed by: cddbd v1.5.2PL0 Copyright (c) Steve Scherf et al.
# Submitted via: CDex 1.51
#
DISCID=f3103f11
DTITLE=陳潔麗 - 心曲
DYEAR=2003
DGENRE=Jazz
TTITLE0=天涯歌女
TTITLE1=I Believe
TTITLE2=堆積情感
TTITLE3=暗湧
TTITLE4=勇氣
TTITLE5=玫瑰心事
TTITLE6=情非得已
TTITLE7=小村莊
TTITLE8=是誰沈醉
TTITLE9=只怕不再遇上
TTITLE10=唯獨你是不可取替
TTITLE11=矜持
TTITLE12=女孩
TTITLE13=我願意
TTITLE14=梨渦淺笑
TTITLE15=印象
TTITLE16=來夜方長
EXTD=YEAR: 2003
EXTT0=
EXTT1=
EXTT2=
EXTT3=
EXTT4=
EXTT5=
EXTT6=
EXTT7=
EXTT8=
EXTT9=
EXTT10=
EXTT11=
EXTT12=
EXTT13=
EXTT14=
EXTT15=
EXTT16=
PLAYORDER=
